<?xml version="1.0" encoding="UTF-8" standalone="no"?>
<!-- Created with Inkscape (http://www.inkscape.org/) -->

<svg
   xmlns:dc="http://purl.org/dc/elements/1.1/"
   xmlns:cc="http://creativecommons.org/ns#"
   xmlns:rdf="http://www.w3.org/1999/02/22-rdf-syntax-ns#"
   xmlns:svg="http://www.w3.org/2000/svg"
   xmlns="http://www.w3.org/2000/svg"
   xmlns:sodipodi="http://sodipodi.sourceforge.net/DTD/sodipodi-0.dtd"
   xmlns:inkscape="http://www.inkscape.org/namespaces/inkscape"
   width="1920"
   height="3000"
   id="svg2"
   version="1.1"
   inkscape:version="0.48.0 r9654"
   sodipodi:docname="novena-creditos-dia-1.svg"
   inkscape:export-filename="C:\Users\chlewey\Documents\Proyectos\Novena\portada-dia-1.png"
   inkscape:export-xdpi="90"
   inkscape:export-ydpi="90">
  <defs
     id="defs4">
    <filter
       inkscape:collect="always"
       id="filter3805"
       color-interpolation-filters="sRGB">
      <feGaussianBlur
         inkscape:collect="always"
         stdDeviation="2.5808105"
         id="feGaussianBlur3807" />
    </filter>
    <inkscape:perspective
       id="perspective23"
       inkscape:persp3d-origin="60 : 14 : 1"
       inkscape:vp_z="120 : 21 : 1"
       inkscape:vp_y="0 : 1000 : 0"
       inkscape:vp_x="0 : 21 : 1"
       sodipodi:type="inkscape:persp3d" />
  </defs>
  <sodipodi:namedview
     id="base"
     pagecolor="#ffffff"
     bordercolor="#666666"
     borderopacity="1.0"
     inkscape:pageopacity="0.0"
     inkscape:pageshadow="2"
     inkscape:zoom="0.27633333"
     inkscape:cx="-237.82871"
     inkscape:cy="1500"
     inkscape:document-units="px"
     inkscape:current-layer="layer1"
     showgrid="false"
     inkscape:window-width="1920"
     inkscape:window-height="1018"
     inkscape:window-x="-8"
     inkscape:window-y="-8"
     inkscape:window-maximized="1" />
  <metadata
     id="metadata7">
    <rdf:RDF>
      <cc:Work
         rdf:about="">
        <dc:format>image/svg+xml</dc:format>
        <dc:type
           rdf:resource="http://purl.org/dc/dcmitype/StillImage" />
        <dc:title />
      </cc:Work>
    </rdf:RDF>
  </metadata>
  <g
     inkscape:label="Capa 1"
     inkscape:groupmode="layer"
     id="layer1">
    <rect
       id="rect3087"
       width="1920"
       height="3000"
       x="0"
       y="0"
       style="fill:#012345;fill-opacity:1" />
    <g
       id="g3783"
       transform="translate(5,5)">
      <text
         xml:space="preserve"
         style="font-size:200px;text-align:start;line-height:125%;text-anchor:start;opacity:0.625;fill:#000000;stroke:none;filter:url(#filter3805);font-family:Old English Text MT;-inkscape-font-specification:Old English Text MT"
         x="180"
         y="250"
         id="text3785"
         sodipodi:linespacing="125%"><tspan
           sodipodi:role="line"
           x="180"
           y="250"
           id="tspan3787">Novena de</tspan></text>
      <text
         xml:space="preserve"
         style="font-size:200px;text-align:start;line-height:125%;text-anchor:start;opacity:0.625;fill:#000000;stroke:none;filter:url(#filter3805);font-family:Old English Text MT;-inkscape-font-specification:Old English Text MT"
         x="780"
         y="430"
         id="text3789"
         sodipodi:linespacing="125%"><tspan
           sodipodi:role="line"
           id="tspan3791"
           x="780"
           y="430">Aguinaldos</tspan></text>
      <text
         xml:space="preserve"
         style="font-size:64px;font-weight:bold;text-align:center;line-height:125%;text-anchor:middle;opacity:0.625;fill:#000000;stroke:none;filter:url(#filter3805);font-family:PT Sans;-inkscape-font-specification:PT Sans Bold"
         x="960"
         y="545"
         id="text3793"
         sodipodi:linespacing="125%"><tspan
           sodipodi:role="line"
           id="tspan3795"
           x="960"
           y="545">(versión tradicional colombiana)</tspan></text>
      <text
         sodipodi:linespacing="125%"
         id="text4370"
         y="790"
         x="960"
         style="font-size:52px;font-style:normal;font-variant:normal;font-weight:bold;font-stretch:normal;text-align:center;line-height:125%;letter-spacing:0px;word-spacing:0px;text-anchor:middle;opacity:0.625;fill:#000000;stroke:none;filter:url(#filter3805);font-family:Open Sans;-inkscape-font-specification:Open Sans Bold"
         xml:space="preserve"><tspan
           y="790"
           x="960"
           id="tspan4372"
           sodipodi:role="line">Texto original por</tspan><tspan
           style="font-size:60px"
           id="tspan4374"
           y="862.15326"
           x="960"
           sodipodi:role="line">Fray Fernando de Jesús Larrea</tspan><tspan
           id="tspan4376"
           y="937.15326"
           x="960"
           sodipodi:role="line" /><tspan
           id="tspan4378"
           y="1005"
           x="960"
           sodipodi:role="line">Modificado por</tspan><tspan
           id="tspan4380"
           y="1077.1533"
           x="960"
           sodipodi:role="line">la <tspan
   id="tspan4382"
   style="font-size:60px">Madre María Ignacia</tspan></tspan><tspan
           id="tspan4384"
           y="1145"
           x="960"
           sodipodi:role="line">(Betilda Samper Acosta)</tspan><tspan
           id="tspan4386"
           y="1210"
           x="960"
           sodipodi:role="line" /><tspan
           id="tspan4388"
           y="1275"
           x="960"
           sodipodi:role="line">Aspiraciones por</tspan><tspan
           id="tspan4390"
           y="1347.1533"
           x="960"
           sodipodi:role="line">la <tspan
   id="tspan4392"
   style="font-size:60px">Madre María Ignacia</tspan></tspan><tspan
           id="tspan4394"
           y="1422.1533"
           x="960"
           sodipodi:role="line" /><tspan
           style="font-style:normal;font-variant:normal;font-weight:bold;font-stretch:normal;font-family:Open Sans;-inkscape-font-specification:Open Sans Bold"
           id="tspan4396"
           y="1490"
           x="960"
           sodipodi:role="line">(algunas posibles modificaciones adicionales</tspan><tspan
           style="font-style:normal;font-variant:normal;font-weight:bold;font-stretch:normal;font-family:Open Sans;-inkscape-font-specification:Open Sans Bold"
           id="tspan4398"
           y="1555"
           x="960"
           sodipodi:role="line">en el proceso de copias y transcripciones)</tspan><tspan
           style="font-style:normal;font-variant:normal;font-weight:bold;font-stretch:normal;font-family:Open Sans;-inkscape-font-specification:Open Sans Bold"
           id="tspan4400"
           y="1620"
           x="960"
           sodipodi:role="line" /><tspan
           id="tspan4402"
           y="1685"
           x="960"
           sodipodi:role="line">Dirección y producción:</tspan><tspan
           style="font-size:60px"
           id="tspan4404"
           y="1757.1533"
           x="960"
           sodipodi:role="line">Carlos Eugenio Thompson Pinzón</tspan><tspan
           id="tspan4406"
           y="1832.1533"
           x="960"
           sodipodi:role="line" /><tspan
           id="tspan4408"
           y="1900"
           x="960"
           sodipodi:role="line">Voces y locución:</tspan><tspan
           style="font-size:60px"
           id="tspan4410"
           y="1972.1533"
           x="960"
           sodipodi:role="line">Carlos Eugenio Thompson Pinzón</tspan><tspan
           style="font-size:60px"
           id="tspan4412"
           y="2047.1533"
           x="960"
           sodipodi:role="line">Luz Beatriz Baquero Cerón</tspan><tspan
           style="font-size:60px"
           id="tspan4414"
           y="2122.1533"
           x="960"
           sodipodi:role="line">Alexandra Cuervo</tspan><tspan
           id="tspan4416"
           y="2197.1533"
           x="960"
           sodipodi:role="line" /><tspan
           id="tspan4418"
           y="2265"
           x="960"
           sodipodi:role="line">Los textos están en dominio público</tspan><tspan
           id="tspan4420"
           y="2330"
           x="960"
           sodipodi:role="line">Esta producción de distribuye como</tspan><tspan
           id="tspan4422"
           y="2395"
           x="960"
           sodipodi:role="line">Creative Commons atribución</tspan></text>
      <g
         inkscape:label="Layer 1"
         id="g4424"
         transform="matrix(3.5,0,0,3.5,806,2436)">
        <g
           id="g4426"
           transform="matrix(0.7333332,0,0,0.738095,-7.8872453e-5,11.000018)">
          <g
             inkscape:export-ydpi="300.23013"
             inkscape:export-xdpi="300.23013"
             inkscape:export-filename="/mnt/hgfs/Bov/Documents/Work/2007/cc/identity/srr buttons/big/by.png"
             id="g4428"
             transform="matrix(0.993773,0,0,0.99367,-177.693,6.25128e-7)">
            <path
               inkscape:connector-curvature="0"
               style="opacity:0.625;fill:#000000;stroke:none;filter:url(#filter3805)"
               d="m 181.96579,0.51074 114.06396,0.20264 c 1.59375,0 3.01758,-0.23633 3.01758,3.18066 l -0.13965,37.56689 -119.82031,0 0,-37.70654 c 0,-1.68505 0.16309,-3.24365 2.87842,-3.24365 z"
               nodetypes="ccccccc"
               id="path4430" />
          </g>
        </g>
      </g>
      <text
         sodipodi:linespacing="125%"
         id="text4460"
         y="2660"
         x="960"
         style="font-size:52px;font-style:normal;font-variant:normal;font-weight:bold;font-stretch:normal;text-align:center;line-height:125%;letter-spacing:0px;word-spacing:0px;text-anchor:middle;opacity:0.625;fill:#000000;stroke:none;filter:url(#filter3805);font-family:Open Sans;-inkscape-font-specification:Open Sans Bold"
         xml:space="preserve"><tspan
           y="2660"
           x="960"
           id="tspan4462"
           sodipodi:role="line">2012</tspan></text>
    </g>
    <g
       id="g3773">
      <text
         sodipodi:linespacing="125%"
         id="text3753"
         y="250"
         x="180"
         style="font-size:200px;text-align:start;line-height:125%;text-anchor:start;fill:#ffeecc;fill-opacity:0.66666667;stroke:#000000;stroke-opacity:0.8;font-family:Old English Text MT;-inkscape-font-specification:Old English Text MT"
         xml:space="preserve"><tspan
           id="tspan3757"
           y="250"
           x="180"
           sodipodi:role="line">Novena de</tspan></text>
      <text
         sodipodi:linespacing="125%"
         id="text3761"
         y="430"
         x="780"
         style="font-size:200px;text-align:start;line-height:125%;text-anchor:start;fill:#ffeecc;fill-opacity:0.66666667;stroke:#000000;stroke-opacity:0.8;font-family:Old English Text MT;-inkscape-font-specification:Old English Text MT"
         xml:space="preserve"><tspan
           y="430"
           x="780"
           id="tspan3763"
           sodipodi:role="line">Aguinaldos</tspan></text>
      <text
         sodipodi:linespacing="125%"
         id="text3765"
         y="545"
         x="960"
         style="font-size:64px;font-weight:bold;text-align:center;line-height:125%;text-anchor:middle;fill:#aaaaaa;fill-opacity:0.66666667;stroke:none;font-family:PT Sans;-inkscape-font-specification:PT Sans Bold"
         xml:space="preserve"><tspan
           y="545"
           x="960"
           id="tspan3767"
           sodipodi:role="line">(versión tradicional colombiana)</tspan></text>
      <text
         xml:space="preserve"
         style="font-size:52px;font-style:normal;font-variant:normal;font-weight:bold;font-stretch:normal;text-align:center;line-height:125%;letter-spacing:0px;word-spacing:0px;text-anchor:middle;fill:#ffffff;fill-opacity:0.66666667;stroke:none;font-family:Open Sans;-inkscape-font-specification:Open Sans Bold"
         x="960"
         y="790"
         id="text4247"
         sodipodi:linespacing="125%"><tspan
           sodipodi:role="line"
           id="tspan4249"
           x="960"
           y="790">Texto original por</tspan><tspan
           sodipodi:role="line"
           x="960"
           y="862.15326"
           id="tspan4251"
           style="font-size:60px;fill:#ffffff;fill-opacity:0.66666667">Fray Fernando de Jesús Larrea</tspan><tspan
           sodipodi:role="line"
           x="960"
           y="937.15326"
           id="tspan4256" /><tspan
           sodipodi:role="line"
           x="960"
           y="1005"
           id="tspan4258">Modificado por</tspan><tspan
           sodipodi:role="line"
           x="960"
           y="1077.1533"
           id="tspan4260">la <tspan
   style="font-size:60px;fill:#ffffff;fill-opacity:0.66666667"
   id="tspan4292">Madre María Ignacia</tspan></tspan><tspan
           sodipodi:role="line"
           x="960"
           y="1145"
           id="tspan4262">(Betilda Samper Acosta)</tspan><tspan
           sodipodi:role="line"
           x="960"
           y="1210"
           id="tspan4272" /><tspan
           sodipodi:role="line"
           x="960"
           y="1275"
           id="tspan4274">Aspiraciones por</tspan><tspan
           sodipodi:role="line"
           x="960"
           y="1347.1533"
           id="tspan4276">la <tspan
   style="font-size:60px;fill:#ffffff;fill-opacity:0.66666667"
   id="tspan4294">Madre María Ignacia</tspan></tspan><tspan
           sodipodi:role="line"
           x="960"
           y="1422.1533"
           id="tspan4264" /><tspan
           sodipodi:role="line"
           x="960"
           y="1490"
           id="tspan4266"
           style="font-style:normal;font-variant:normal;font-weight:bold;font-stretch:normal;fill:#ffffff;fill-opacity:0.66666667;font-family:Open Sans;-inkscape-font-specification:Open Sans Bold">(algunas posibles modificaciones adicionales</tspan><tspan
           sodipodi:role="line"
           x="960"
           y="1555"
           id="tspan4268"
           style="font-style:normal;font-variant:normal;font-weight:bold;font-stretch:normal;fill:#ffffff;fill-opacity:0.66666667;font-family:Open Sans;-inkscape-font-specification:Open Sans Bold">en el proceso de copias y transcripciones)</tspan><tspan
           sodipodi:role="line"
           x="960"
           y="1620"
           id="tspan4270"
           style="font-style:normal;font-variant:normal;font-weight:bold;font-stretch:normal;fill:#ffffff;fill-opacity:0.66666667;font-family:Open Sans;-inkscape-font-specification:Open Sans Bold" /><tspan
           sodipodi:role="line"
           x="960"
           y="1685"
           id="tspan4278">Dirección y producción:</tspan><tspan
           sodipodi:role="line"
           x="960"
           y="1757.1533"
           id="tspan4280"
           style="font-size:60px;fill:#ffffff;fill-opacity:0.66666667">Carlos Eugenio Thompson Pinzón</tspan><tspan
           sodipodi:role="line"
           x="960"
           y="1832.1533"
           id="tspan4282" /><tspan
           sodipodi:role="line"
           x="960"
           y="1900"
           id="tspan4284">Voces y locución:</tspan><tspan
           sodipodi:role="line"
           x="960"
           y="1972.1533"
           id="tspan4286"
           style="font-size:60px;fill:#ffffff;fill-opacity:0.66666667">Carlos Eugenio Thompson Pinzón</tspan><tspan
           sodipodi:role="line"
           x="960"
           y="2047.1533"
           id="tspan4288"
           style="font-size:60px;fill:#ffffff;fill-opacity:0.66666667">Luz Beatriz Baquero Cerón</tspan><tspan
           sodipodi:role="line"
           x="960"
           y="2122.1533"
           id="tspan4290"
           style="font-size:60px;fill:#ffffff;fill-opacity:0.66666667">Alexandra Cuervo</tspan><tspan
           sodipodi:role="line"
           x="960"
           y="2197.1533"
           id="tspan4296" /><tspan
           sodipodi:role="line"
           x="960"
           y="2265"
           id="tspan4298">Los textos están en dominio público</tspan><tspan
           sodipodi:role="line"
           x="960"
           y="2330"
           id="tspan4300">Esta producción de distribuye como</tspan><tspan
           sodipodi:role="line"
           x="960"
           y="2395"
           id="tspan4302">Creative Commons atribución</tspan></text>
      <g
         transform="matrix(3.5,0,0,3.5,806,2436)"
         id="layer1-5"
         inkscape:label="Layer 1">
        <g
           transform="matrix(0.7333332,0,0,0.738095,-7.8872453e-5,11.000018)"
           id="g2396">
          <g
             transform="matrix(0.993773,0,0,0.99367,-177.693,6.25128e-7)"
             id="g260"
             inkscape:export-filename="/mnt/hgfs/Bov/Documents/Work/2007/cc/identity/srr buttons/big/by.png"
             inkscape:export-xdpi="300.23013"
             inkscape:export-ydpi="300.23013">
            <path
               id="path3817_1_"
               nodetypes="ccccccc"
               d="m 181.96579,0.51074 114.06396,0.20264 c 1.59375,0 3.01758,-0.23633 3.01758,3.18066 l -0.13965,37.56689 -119.82031,0 0,-37.70654 c 0,-1.68505 0.16309,-3.24365 2.87842,-3.24365 z"
               style="fill:#aab2ab"
               inkscape:connector-curvature="0" />
            <path
               d="m 297.29636,0 -116.229,0 c -1.24658,0 -2.26123,1.01416 -2.26123,2.26074 l 0,39.49658 c 0,0.28174 0.229,0.51025 0.51074,0.51025 l 119.73047,0 c 0.28174,0 0.51074,-0.22852 0.51074,-0.51025 l 0,-39.49658 C 299.55807,1.01416 298.54343,0 297.29636,0 z m -116.22901,1.02148 116.229,0 c 0.68408,0 1.24023,0.55566 1.24023,1.23926 0,0 0,15.94824 0,27.44971 l -83.34424,0 c -3.04492,5.50586 -8.91113,9.24414 -15.64355,9.24414 -6.73535,0 -12.6001,-3.73486 -15.64355,-9.24414 l -4.07764,0 c 0,-11.50146 0,-27.44971 0,-27.44971 1e-5,-0.68359 0.55616,-1.23926 1.23975,-1.23926 z"
               id="path263"
               inkscape:connector-curvature="0" />
            <g
               enable-background="new    "
               id="g265">
              <path
                 d="m 253.07761,32.95605 c 0.31738,0 0.60742,0.02832 0.87012,0.08398 0.26172,0.05566 0.48535,0.14746 0.67285,0.27539 0.18652,0.12695 0.33203,0.29688 0.43457,0.50781 0.10254,0.21191 0.1543,0.47266 0.1543,0.78418 0,0.33594 -0.0762,0.61523 -0.22949,0.83887 -0.15234,0.22461 -0.37891,0.40723 -0.67773,0.55078 0.41211,0.11816 0.71973,0.3252 0.92285,0.62109 0.20312,0.29589 0.30469,0.65234 0.30469,1.06934 0,0.33594 -0.0654,0.62695 -0.19629,0.87305 -0.13086,0.24512 -0.30762,0.44629 -0.52832,0.60156 -0.22168,0.15625 -0.47461,0.27148 -0.75781,0.3457 -0.28418,0.0752 -0.5752,0.1123 -0.875,0.1123 l -3.23635,0 0,-6.66406 3.14161,0 0,10e-6 z m -0.1875,2.69532 c 0.26172,0 0.47656,-0.0625 0.64551,-0.18652 0.16797,-0.12402 0.25195,-0.3252 0.25195,-0.60449 0,-0.15527 -0.0283,-0.2832 -0.084,-0.38184 -0.0566,-0.09961 -0.13086,-0.17676 -0.22461,-0.2334 -0.0937,-0.05566 -0.20117,-0.09473 -0.32227,-0.11621 -0.1211,-0.02148 -0.24805,-0.03223 -0.37793,-0.03223 l -1.37402,0 0,1.55469 1.48535,0 z m 0.0859,2.82812 c 0.14355,0 0.28027,-0.01367 0.41113,-0.04199 0.13086,-0.02832 0.24609,-0.0752 0.34668,-0.13965 0.0996,-0.06543 0.17871,-0.1543 0.23828,-0.2666 0.0596,-0.11133 0.0889,-0.25488 0.0889,-0.42871 0,-0.3418 -0.0967,-0.58594 -0.29004,-0.73242 -0.19336,-0.14551 -0.44922,-0.21875 -0.7666,-0.21875 l -1.59961,0 0,1.82812 1.57129,0 z"
                 id="path267"
                 style="fill:#ffffff"
                 inkscape:connector-curvature="0" />
              <path
                 d="m 255.78854,32.95605 1.64355,0 1.56055,2.63184 1.55078,-2.63184 1.63379,0 -2.47363,4.10645 0,2.55762 -1.46875,0 0,-2.59473 -2.44629,-4.06934 z"
                 id="path269"
                 style="fill:#ffffff"
                 inkscape:connector-curvature="0" />
            </g>
            <g
               id="g5908_1_"
               transform="matrix(0.872921,0,0,0.872921,50.1254,143.214)">
              <path
                 id="path5906_1_"
                 cx="296.35416"
                 ry="22.939548"
                 cy="264.3577"
                 type="arc"
                 rx="22.939548"
                 d="m 186.90065,-141.46002 c 0.006,8.68079 -7.02786,15.7215 -15.70808,15.72711 -8.68022,0.006 -15.72206,-7.02734 -15.7271,-15.70807 0,-0.006 0,-0.0123 0,-0.019 -0.005,-8.68079 7.02786,-15.7215 15.70808,-15.72656 8.68135,-0.006 15.72206,7.02734 15.7271,15.70813 0,0.006 0,0.0123 0,0.0184 z"
                 style="fill:#ffffff"
                 inkscape:connector-curvature="0" />
              <g
                 id="g5706_1_"
                 transform="translate(-289.616,99.0653)">
                <path
                   id="path5708_1_"
                   d="m 473.57574,-253.32751 c 3.48541,3.48541 5.22839,7.75391 5.22839,12.80219 0,5.04938 -1.71277,9.27203 -5.13831,12.66791 -3.63531,3.5766 -7.93182,5.36432 -12.88947,5.36432 -4.89777,0 -9.11987,-1.77319 -12.66513,-5.31952 -3.54581,-3.54584 -5.31845,-7.78302 -5.31845,-12.71271 0,-4.92859 1.77264,-9.19598 5.31845,-12.80219 3.4552,-3.48651 7.67728,-5.22949 12.66513,-5.22949 5.0483,-10e-6 9.31404,1.74297 12.79939,5.22949 z m -23.11798,2.34484 c -2.94672,2.97638 -4.41953,6.46289 -4.41953,10.46234 0,3.99835 1.45828,7.45526 4.37424,10.37067 2.9165,2.9165 6.38849,4.37421 10.41705,4.37421 4.02856,0 7.53015,-1.47223 10.50653,-4.4184 2.82593,-2.73645 4.23944,-6.17706 4.23944,-10.32648 0,-4.11804 -1.43646,-7.61346 -4.30768,-10.48468 -2.87067,-2.87067 -6.34991,-4.30658 -10.43829,-4.30658 -4.0884,1e-5 -7.54638,1.44318 -10.37176,4.32892 z m 7.75449,8.70319 c -0.45029,-0.98169 -1.1243,-1.47284 -2.02322,-1.47284 -1.58917,0 -2.38345,1.07007 -2.38345,3.20911 0,2.13953 0.79428,3.2085 2.38345,3.2085 1.04938,0 1.79892,-0.52075 2.24866,-1.56451 l 2.20276,1.17297 c -1.04993,1.86548 -2.62509,2.79846 -4.72549,2.79846 -1.6199,0 -2.91763,-0.4967 -3.89206,-1.48901 -0.9761,-0.99341 -1.46274,-2.36273 -1.46274,-4.10852 0,-1.71503 0.50229,-3.07654 1.50748,-4.08502 1.00519,-1.00854 2.25702,-1.51257 3.75781,-1.51257 2.22012,0 3.80981,0.87488 4.77081,2.62286 l -2.38401,1.22057 z m 10.36337,0 c -0.45087,-0.98169 -1.11145,-1.47284 -1.98242,-1.47284 -1.62103,0 -2.43213,1.07007 -2.43213,3.20911 0,2.13953 0.8111,3.2085 2.43213,3.2085 1.05109,0 1.78717,-0.52075 2.20728,-1.56451 l 2.25201,1.17297 c -1.04828,1.86548 -2.62122,2.79846 -4.71771,2.79846 -1.61768,0 -2.9126,-0.4967 -3.88647,-1.48901 -0.97217,-0.99341 -1.45935,-2.36273 -1.45935,-4.10852 0,-1.71503 0.49445,-3.07654 1.48285,-4.08502 0.98785,-1.00854 2.2453,-1.51257 3.7735,-1.51257 2.21619,0 3.80365,0.87488 4.76129,2.62286 l -2.43098,1.22057 z"
                   inkscape:connector-curvature="0" />
              </g>
            </g>
            <g
               id="g275">
              <circle
                 cx="255.55124"
                 cy="15.31348"
                 r="10.80664"
                 id="circle277"
                 sodipodi:cx="255.55124"
                 sodipodi:cy="15.31348"
                 sodipodi:rx="10.80664"
                 sodipodi:ry="10.80664"
                 style="fill:#ffffff"
                 d="m 266.35788,15.31348 c 0,5.968343 -4.8383,10.80664 -10.80664,10.80664 -5.96834,0 -10.80664,-4.838297 -10.80664,-10.80664 0,-5.9683419 4.8383,-10.8066393 10.80664,-10.8066393 5.96834,0 10.80664,4.8382974 10.80664,10.8066393 z" />
              <g
                 id="g279">
                <path
                   d="m 258.67819,12.18701 c 0,-0.4165 -0.33789,-0.75391 -0.75293,-0.75391 l -4.77344,0 c -0.41504,0 -0.75293,0.3374 -0.75293,0.75391 l 0,4.77295 1.33105,0 0,5.65186 3.61719,0 0,-5.65186 1.33105,0 0,-4.77295 10e-6,0 z"
                   id="path281"
                   inkscape:connector-curvature="0" />
                <circle
                   cx="255.53854"
                   cy="9.1723604"
                   r="1.63281"
                   id="circle283"
                   sodipodi:cx="255.53854"
                   sodipodi:cy="9.1723604"
                   sodipodi:rx="1.63281"
                   sodipodi:ry="1.63281"
                   d="m 257.17135,9.1723604 c 0,0.9017756 -0.73103,1.6328096 -1.63281,1.6328096 -0.90177,0 -1.63281,-0.731034 -1.63281,-1.6328096 0,-0.901776 0.73104,-1.63281 1.63281,-1.63281 0.90178,0 1.63281,0.731034 1.63281,1.63281 z" />
              </g>
              <path
                 clip-rule="evenodd"
                 d="m 255.5239,3.40723 c -3.23242,0 -5.96875,1.12793 -8.20801,3.38379 -2.29785,2.3335 -3.44629,5.0957 -3.44629,8.28467 0,3.18897 1.14844,5.93164 3.44629,8.22656 2.29785,2.29443 5.03418,3.44189 8.20801,3.44189 3.21289,0 5.99805,-1.15625 8.35352,-3.47119 2.21973,-2.19727 3.33008,-4.92969 3.33008,-8.19727 0,-3.26758 -1.12988,-6.02881 -3.3877,-8.28467 -2.25977,-2.25585 -5.02442,-3.38378 -8.2959,-3.38378 z m 0.0293,2.09961 c 2.64844,0 4.89746,0.93408 6.74707,2.80127 1.86914,1.84717 2.80371,4.10303 2.80371,6.76758 0,2.68359 -0.91504,4.91064 -2.74512,6.68018 -1.92871,1.90625 -4.19629,2.85889 -6.80566,2.85889 -2.61035,0 -4.85938,-0.94287 -6.74707,-2.82959 -1.88965,-1.88672 -2.83301,-4.12305 -2.83301,-6.70947 0,-2.58691 0.9541,-4.84229 2.8623,-6.76758 1.83009,-1.8672 4.06934,-2.80128 6.71778,-2.80128 z"
                 id="path285"
                 style="fill-rule:evenodd"
                 inkscape:connector-curvature="0" />
            </g>
          </g>
        </g>
      </g>
      <text
         xml:space="preserve"
         style="font-size:52px;font-style:normal;font-variant:normal;font-weight:bold;font-stretch:normal;text-align:center;line-height:125%;letter-spacing:0px;word-spacing:0px;text-anchor:middle;fill:#ffffff;fill-opacity:0.66666667;stroke:none;font-family:Open Sans;-inkscape-font-specification:Open Sans Bold"
         x="960"
         y="2660"
         id="text4364"
         sodipodi:linespacing="125%"><tspan
           sodipodi:role="line"
           id="tspan4366"
           x="960"
           y="2660">2012</tspan></text>
    </g>
  </g>
</svg>
